<svg width="25" height="27" viewBox="0 0 25 27" fill="none" xmlns="http://www.w3.org/2000/svg">
<path d="M24 0H1C0.446875 0 0 0.465898 0 1.04257V25.0216C0 25.5983 0.446875 26.0642 1 26.0642H24C24.5531 26.0642 25 25.5983 25 25.0216V1.04257C25 0.465898 24.5531 0 24 0ZM23 23.9791H17.2469V15.9708H20.4969L20.9844 12.0384H17.2469V9.52647C17.2469 8.38616 17.55 7.61075 19.1156 7.61075H21.1125V4.09208C20.7656 4.04321 19.5813 3.9357 18.2 3.9357C15.3188 3.9357 13.3469 5.76996 13.3469 9.1355V12.0351H10.0906V15.9676H13.35V23.9791H2V2.08514H23V23.9791Z" fill="black"/>
</svg>
