<svg width="25" height="27" viewBox="0 0 25 27" fill="none" xmlns="http://www.w3.org/2000/svg">
<path d="M12.4966 6.34537C8.94743 6.34537 6.08305 9.33174 6.08305 13.0321C6.08305 16.7325 8.94743 19.7188 12.4966 19.7188C16.0458 19.7188 18.9102 16.7325 18.9102 13.0321C18.9102 9.33174 16.0458 6.34537 12.4966 6.34537ZM12.4966 17.378C10.2014 17.378 8.32828 15.4251 8.32828 13.0321C8.32828 10.6391 10.2014 8.68622 12.4966 8.68622C14.7919 8.68622 16.665 10.6391 16.665 13.0321C16.665 15.4251 14.7919 17.378 12.4966 17.378ZM19.1729 4.51313C18.3442 4.51313 17.675 5.21082 17.675 6.07478C17.675 6.93874 18.3442 7.63643 19.1729 7.63643C20.0016 7.63643 20.6708 6.942 20.6708 6.07478C20.671 5.86962 20.6324 5.66644 20.5572 5.47685C20.4821 5.28727 20.3717 5.11501 20.2326 4.96995C20.0935 4.82488 19.9282 4.70986 19.7464 4.63148C19.5646 4.55309 19.3697 4.51287 19.1729 4.51313ZM24.9986 13.0321C24.9986 11.2325 25.0142 9.44911 24.9173 7.65273C24.8204 5.56618 24.3638 3.71437 22.9004 2.18858C21.4338 0.659536 19.6607 0.186803 17.6594 0.0857356C15.9333 -0.0153315 14.2228 0.000969736 12.4998 0.000969736C10.7736 0.000969736 9.06313 -0.0153315 7.34013 0.0857356C5.33881 0.186803 3.56265 0.662796 2.09918 2.18858C0.632595 3.71763 0.179172 5.56618 0.0822335 7.65273C-0.0147052 9.45237 0.000930124 11.2357 0.000930124 13.0321C0.000930124 14.8285 -0.0147052 16.6151 0.0822335 18.4115C0.179172 20.498 0.635722 22.3498 2.09918 23.8756C3.56577 25.4047 5.33881 25.8774 7.34013 25.9785C9.06626 26.0795 10.7768 26.0632 12.4998 26.0632C14.2259 26.0632 15.9364 26.0795 17.6594 25.9785C19.6607 25.8774 21.4369 25.4014 22.9004 23.8756C24.3669 22.3466 24.8204 20.498 24.9173 18.4115C25.0174 16.6151 24.9986 14.8317 24.9986 13.0321ZM22.2468 20.7197C22.0185 21.3131 21.7433 21.7565 21.3024 22.2129C20.8615 22.6726 20.4394 22.9595 19.8702 23.1975C18.2254 23.8789 14.3197 23.7257 12.4966 23.7257C10.6736 23.7257 6.76475 23.8789 5.11992 23.2008C4.55079 22.9628 4.12551 22.6759 3.68773 22.2162C3.24681 21.7565 2.97163 21.3163 2.74336 20.723C2.09293 19.0048 2.2399 14.9328 2.2399 13.0321C2.2399 11.1314 2.09293 7.05611 2.74336 5.34122C2.97163 4.74786 3.24681 4.30447 3.68773 3.84804C4.12864 3.39161 4.55079 3.10145 5.11992 2.86345C6.76475 2.18532 10.6736 2.33855 12.4966 2.33855C14.3197 2.33855 18.2285 2.18532 19.8734 2.86345C20.4425 3.10145 20.8678 3.38835 21.3056 3.84804C21.7465 4.30773 22.0216 4.74786 22.2499 5.34122C22.9004 7.05611 22.7534 11.1314 22.7534 13.0321C22.7534 14.9328 22.9004 19.0048 22.2468 20.7197Z" fill="black"/>
</svg>
